<svg xmlns="http://www.w3.org/2000/svg" xmlns:xlink="http://www.w3.org/1999/xlink" width="500" zoomAndPan="magnify" viewBox="0 0 375 374.999991" height="500" preserveAspectRatio="xMidYMid meet" version="1.0"><defs><g/><clipPath id="c2813341a8"><path d="M 111.566406 115.449219 L 264.566406 115.449219 L 264.566406 268.449219 L 111.566406 268.449219 Z M 111.566406 115.449219 " clip-rule="nonzero"/></clipPath><clipPath id="51537eda66"><path d="M 141.484375 145.066406 L 235.171875 145.066406 L 235.171875 238.757812 L 141.484375 238.757812 Z M 141.484375 145.066406 " clip-rule="nonzero"/></clipPath><clipPath id="0692d7bc9c"><path d="M 188.328125 145.066406 C 162.457031 145.066406 141.484375 166.039062 141.484375 191.910156 C 141.484375 217.78125 162.457031 238.757812 188.328125 238.757812 C 214.199219 238.757812 235.171875 217.78125 235.171875 191.910156 C 235.171875 166.039062 214.199219 145.066406 188.328125 145.066406 Z M 188.328125 145.066406 " clip-rule="nonzero"/></clipPath><clipPath id="539e22b917"><path d="M 242 186 L 255.222656 186 L 255.222656 200 L 242 200 Z M 242 186 " clip-rule="nonzero"/></clipPath><clipPath id="8bb3f6ef76"><path d="M 234.34375 220 L 236 220 L 236 220.589844 L 234.34375 220.589844 Z M 234.34375 220 " clip-rule="nonzero"/></clipPath><clipPath id="0d309a8684"><path d="M 120.832031 186 L 134 186 L 134 200 L 120.832031 200 Z M 120.832031 186 " clip-rule="nonzero"/></clipPath><clipPath id="a4b6702057"><path d="M 140 220 L 141.519531 220 L 141.519531 220.589844 L 140 220.589844 Z M 140 220 " clip-rule="nonzero"/></clipPath><clipPath id="14455e1b2a"><path d="M 156 160.328125 L 218.914062 160.328125 L 218.914062 223 L 156 223 Z M 156 160.328125 " clip-rule="nonzero"/></clipPath><clipPath id="633a65bc5b"><path d="M 156 160.328125 L 218.914062 160.328125 L 218.914062 223.328125 L 156 223.328125 Z M 156 160.328125 " clip-rule="nonzero"/></clipPath></defs><g clip-path="url(#c2813341a8)"><path fill="#0e6b28" d="M 188.023438 115.449219 C 145.785156 115.449219 111.566406 149.703125 111.566406 191.910156 C 111.566406 234.117188 145.785156 268.367188 188.023438 268.367188 C 230.261719 268.367188 264.484375 234.117188 264.484375 191.910156 C 264.484375 149.703125 230.261719 115.449219 188.023438 115.449219 Z M 188.023438 263.527344 C 148.46875 263.527344 116.40625 231.464844 116.40625 191.910156 C 116.40625 152.355469 148.46875 120.289062 188.023438 120.289062 C 227.578125 120.289062 259.644531 152.355469 259.644531 191.910156 C 259.644531 231.464844 227.578125 263.527344 188.023438 263.527344 Z M 188.023438 263.527344 " fill-opacity="1" fill-rule="nonzero"/></g><g clip-path="url(#51537eda66)"><g clip-path="url(#0692d7bc9c)"><path fill="#0e6b28" d="M 141.484375 145.066406 L 235.171875 145.066406 L 235.171875 238.757812 L 141.484375 238.757812 Z M 141.484375 145.066406 " fill-opacity="1" fill-rule="nonzero"/></g></g><g clip-path="url(#539e22b917)"><path fill="#cd853f" d="M 253.074219 199.082031 L 249.042969 196.203125 L 245.03125 199.109375 L 246.523438 194.386719 L 242.519531 191.46875 L 247.472656 191.425781 L 249.007812 186.71875 L 250.578125 191.417969 L 255.535156 191.421875 L 251.550781 194.367188 Z M 253.074219 199.082031 " fill-opacity="1" fill-rule="evenodd"/></g><path fill="#cd853f" d="M 247.742188 218.714844 L 243.710938 215.835938 L 239.699219 218.742188 L 241.191406 214.019531 L 237.1875 211.101562 L 242.140625 211.058594 L 243.679688 206.351562 L 245.25 211.050781 L 250.203125 211.054688 L 246.21875 214 Z M 247.742188 218.714844 " fill-opacity="1" fill-rule="evenodd"/><g clip-path="url(#8bb3f6ef76)"><path fill="#cd853f" d="M 233.320312 233.011719 L 229.289062 230.132812 L 225.277344 233.042969 L 226.769531 228.316406 L 222.765625 225.398438 L 227.71875 225.359375 L 229.257812 220.648438 L 230.828125 225.347656 L 235.78125 225.355469 L 231.796875 228.300781 Z M 233.320312 233.011719 " fill-opacity="1" fill-rule="evenodd"/></g><g clip-path="url(#0d309a8684)"><path fill="#cd853f" d="M 122.976562 199.082031 L 127.011719 196.203125 L 131.023438 199.109375 L 129.53125 194.386719 L 133.535156 191.46875 L 128.578125 191.425781 L 127.042969 186.71875 L 125.472656 191.417969 L 120.519531 191.421875 L 124.503906 194.367188 Z M 122.976562 199.082031 " fill-opacity="1" fill-rule="evenodd"/></g><path fill="#cd853f" d="M 128.308594 218.714844 L 132.339844 215.835938 L 136.351562 218.742188 L 134.859375 214.019531 L 138.867188 211.101562 L 133.910156 211.058594 L 132.375 206.351562 L 130.804688 211.050781 L 125.851562 211.054688 L 129.835938 214 Z M 128.308594 218.714844 " fill-opacity="1" fill-rule="evenodd"/><g clip-path="url(#a4b6702057)"><path fill="#cd853f" d="M 142.730469 233.011719 L 146.761719 230.132812 L 150.773438 233.042969 L 149.28125 228.316406 L 153.289062 225.398438 L 148.332031 225.359375 L 146.796875 220.648438 L 145.226562 225.347656 L 140.273438 225.355469 L 144.257812 228.300781 Z M 142.730469 233.011719 " fill-opacity="1" fill-rule="evenodd"/></g><g clip-path="url(#14455e1b2a)"><path fill="#ffffff" d="M 187.597656 160.746094 C 170.441406 160.746094 156.484375 174.703125 156.484375 191.863281 C 156.484375 209.019531 170.441406 222.980469 187.597656 222.980469 C 204.757812 222.980469 218.714844 209.019531 218.714844 191.863281 C 218.714844 174.703125 204.757812 160.746094 187.597656 160.746094 Z M 187.597656 160.746094 " fill-opacity="1" fill-rule="nonzero"/></g><g clip-path="url(#633a65bc5b)"><path fill="#000000" d="M 187.597656 160.558594 C 170.339844 160.558594 156.296875 174.601562 156.296875 191.863281 C 156.296875 209.125 170.339844 223.167969 187.597656 223.167969 C 204.859375 223.167969 218.902344 209.125 218.902344 191.863281 C 218.902344 174.601562 204.859375 160.558594 187.597656 160.558594 Z M 215.585938 187.933594 C 213.730469 189.609375 211.445312 191.460938 208.78125 192.960938 C 206.390625 190.914062 201.441406 187.792969 199.046875 186.65625 C 198.28125 182.445312 197.214844 178.355469 195.902344 174.582031 C 196.601562 173.65625 201.078125 169.882812 202.527344 168.925781 C 206.265625 170.617188 209.84375 173.347656 212.414062 175.886719 L 212.4375 175.941406 C 213.285156 178.058594 215.480469 184.292969 215.585938 187.933594 Z M 184.011719 214.726562 C 178.167969 213.820312 172.976562 211.65625 171.609375 210.746094 L 171.535156 210.695312 C 170.117188 208.28125 169.296875 206.664062 168.617188 204.09375 C 168.296875 202.890625 168.0625 201.109375 167.914062 199.308594 C 169.191406 197.699219 174.285156 193.097656 176.121094 191.710938 C 179.855469 192.925781 184.28125 194.226562 188.421875 195.21875 C 189.347656 197.972656 191.574219 204.449219 192.550781 206.898438 C 190.109375 209.800781 186.953125 212.710938 184.011719 214.726562 Z M 183.035156 171.042969 C 186.0625 171.21875 193.207031 173.015625 195.484375 174.609375 C 196.804688 178.386719 197.878906 182.484375 198.644531 186.710938 C 197.71875 187.527344 195.949219 188.894531 194.078125 190.339844 C 191.808594 192.089844 189.46875 193.902344 188.515625 194.824219 C 184.410156 193.84375 180.023438 192.554688 176.3125 191.347656 C 176.269531 191.148438 176.183594 190.777344 176.070312 190.28125 C 175.488281 187.71875 174.136719 181.769531 173.6875 179.363281 C 176.648438 176.246094 179.972656 173.292969 183.035156 171.042969 Z M 160.414062 193.277344 C 160.609375 193.449219 160.894531 193.707031 161.242188 194.023438 C 163.003906 195.617188 166.25 198.550781 167.515625 199.371094 C 167.664062 201.1875 167.902344 202.980469 168.222656 204.199219 C 168.921875 206.835938 169.761719 208.480469 171.21875 210.953125 C 170.984375 211.269531 170.753906 211.578125 170.515625 211.890625 C 169.914062 212.6875 169.289062 213.511719 168.5 214.667969 C 167.296875 214.207031 166.195312 213.652344 165.285156 213.152344 C 161.125 208.789062 158.222656 203.21875 157.175781 197.023438 C 157.835938 196.179688 158.929688 194.796875 160.414062 193.277344 Z M 168.429688 215.074219 C 169.300781 216.300781 171.433594 217.941406 173.503906 219.304688 C 170.820312 217.921875 168.394531 216.183594 166.21875 214.089844 C 166.9375 214.453125 167.675781 214.785156 168.429688 215.074219 Z M 184.601562 215.617188 C 184.507812 215.417969 184.414062 215.214844 184.316406 215.007812 C 187.265625 212.972656 190.421875 210.058594 192.867188 207.152344 C 193 207.152344 193.132812 207.15625 193.28125 207.15625 C 196.195312 207.15625 202.363281 206.5625 204.746094 206.042969 C 206.003906 208.289062 207.316406 210.757812 208.15625 212.464844 C 206.242188 215.421875 201.996094 218.566406 199.714844 219.890625 C 198.003906 220.535156 195.761719 221.046875 192.699219 221.160156 C 190.703125 221.230469 189.097656 221.109375 187.453125 220.644531 C 186.480469 219.648438 185.648438 217.871094 184.601562 215.617188 Z M 212.46875 210.117188 C 211.003906 211.089844 209.664062 211.804688 208.492188 212.234375 C 207.640625 210.511719 206.332031 208.050781 205.082031 205.816406 C 206.878906 202.796875 208.503906 196.621094 208.917969 193.347656 C 211.585938 191.855469 213.875 190.015625 215.742188 188.339844 C 217.019531 190.140625 218.25 192.894531 218.394531 193.804688 C 218.394531 193.804688 218.394531 193.808594 218.394531 193.808594 C 218.210938 196.753906 217.617188 199.617188 216.605469 202.390625 C 215.597656 205.164062 214.21875 207.738281 212.46875 210.117188 Z M 213.320312 174.828125 C 213.113281 175.085938 212.894531 175.328125 212.65625 175.558594 C 210.023438 172.96875 206.367188 170.195312 202.550781 168.492188 C 201.707031 166.875 197.75 163.589844 195.21875 162.425781 C 195.332031 162.296875 195.445312 162.171875 195.5625 162.046875 C 202.921875 164.011719 209.207031 168.636719 213.320312 174.828125 Z M 195.121094 161.929688 C 195.011719 162.054688 194.902344 162.175781 194.792969 162.304688 C 192.121094 161.929688 184.839844 162.164062 182.625 163.710938 C 180.410156 163.433594 178.1875 163.292969 175.953125 163.289062 C 178.992188 162.046875 182.152344 161.308594 185.429688 161.074219 C 188.707031 160.84375 191.9375 161.128906 195.121094 161.929688 Z M 175.003906 163.699219 C 177.5 163.660156 179.988281 163.792969 182.46875 164.097656 L 182.476562 164.394531 C 182.535156 166.109375 182.636719 169.25 182.785156 170.710938 C 179.699219 172.972656 176.375 175.929688 173.378906 179.09375 C 170.769531 178.878906 166.175781 178.875 164.070312 179.191406 C 163.347656 177.519531 162.699219 175.808594 162.285156 174.242188 C 163.886719 171.941406 165.769531 169.898438 167.929688 168.109375 C 170.085938 166.320312 172.445312 164.847656 175.003906 163.699219 Z M 161.980469 174.675781 C 162.410156 176.195312 163.039062 177.828125 163.730469 179.417969 C 161.992188 183.292969 160.152344 190.347656 160.207031 192.90625 C 159.101562 194.042969 158.0625 195.238281 157.085938 196.488281 C 156.796875 194.597656 156.6875 192.695312 156.757812 190.785156 C 156.824219 188.875 157.066406 186.988281 157.484375 185.121094 C 157.902344 183.257812 158.492188 181.445312 159.246094 179.6875 C 160 177.933594 160.914062 176.261719 161.980469 174.675781 Z M 180.644531 221.925781 C 180.996094 221.945312 181.359375 221.980469 181.695312 221.980469 C 184.128906 221.980469 186.1875 221.578125 187.3125 221.011719 C 188.730469 221.417969 190.117188 221.582031 191.710938 221.582031 C 192.035156 221.582031 192.367188 221.574219 192.710938 221.5625 C 195.1875 221.472656 197.136719 221.121094 198.710938 220.648438 C 195.832031 221.765625 192.851562 222.433594 189.773438 222.648438 C 186.691406 222.867188 183.648438 222.625 180.644531 221.925781 Z M 180.644531 221.925781 " fill-opacity="1" fill-rule="nonzero"/></g><g fill="#3f4166" fill-opacity="1"><g transform="translate(133.335224, 177.085012)"><g><path d="M -8.359375 -3.828125 L -6.421875 -9.359375 L -4.40625 -10.328125 L 1.28125 -8.328125 L 2.21875 -6.328125 L 0.28125 -0.796875 Z M 0.5 -6 L 0.09375 -6.84375 L -4.421875 -8.4375 L -5.265625 -8.03125 L -6.328125 -5.015625 L -0.5625 -2.984375 Z M 0.5 -6 "/></g></g></g><g fill="#3f4166" fill-opacity="1"><g transform="translate(136.207263, 168.952818)"><g><path d="M -7.71875 -5 L -4.65625 -10.875 L -3.328125 -10.171875 L -5.5625 -5.875 L -3.5 -4.796875 L -1.4375 -8.75 L -0.140625 -8.0625 L -2.203125 -4.109375 L -0.109375 -3.015625 L 2.125 -7.3125 L 3.453125 -6.625 L 0.390625 -0.75 Z M -7.71875 -5 "/></g></g></g><g fill="#3f4166" fill-opacity="1"><g transform="translate(139.674814, 162.221999)"><g><path d="M -7.359375 -5.4375 L -6.296875 -6.921875 L 0.734375 -4.671875 L 0.75 -4.703125 L -3.625 -10.65625 L -2.5625 -12.140625 L 2.96875 -4.15625 L 1.96875 -2.75 Z M -7.359375 -5.4375 "/></g></g></g><g fill="#3f4166" fill-opacity="1"><g transform="translate(144.393499, 155.594917)"><g><path d="M -0.5625 -1.4375 L -1.515625 -2.34375 L -0.296875 -3.609375 L 0.265625 -3.09375 L 0.875 -3.09375 L 2.75 -5.046875 L 2.71875 -5.671875 L 1.625 -6.71875 L 1.03125 -6.71875 L -1.359375 -4.21875 L -3.375 -4.1875 L -5.125 -5.859375 L -5.15625 -7.859375 L -2.296875 -10.828125 L -0.296875 -10.875 L 0.65625 -9.96875 L -0.5625 -8.703125 L -1.125 -9.234375 L -1.734375 -9.234375 L -3.53125 -7.359375 L -3.515625 -6.75 L -2.546875 -5.828125 L -1.921875 -5.8125 L 0.46875 -8.3125 L 2.46875 -8.375 L 4.328125 -6.59375 L 4.359375 -4.546875 L 1.421875 -1.484375 Z M -0.5625 -1.4375 "/></g></g></g><g fill="#3f4166" fill-opacity="1"><g transform="translate(149.886686, 149.825372)"><g><path d="M -2.953125 -9.3125 L -1.671875 -10.3125 L 6.609375 -5.171875 L 5.1875 -4.046875 L 3.34375 -5.1875 L 0.8125 -3.203125 L 1.484375 -1.15625 L 0.046875 -0.03125 Z M 2.140625 -6.09375 L -0.96875 -8.078125 L -0.984375 -8.078125 L 0.234375 -4.609375 Z M 2.140625 -6.09375 "/></g></g></g><g fill="#3f4166" fill-opacity="1"><g transform="translate(156.207821, 144.816225)"><g><path d="M -3.765625 -8.390625 L -2.21875 -9.265625 L -0.34375 -5.9375 L 3.03125 -7.84375 L 1.15625 -11.171875 L 2.71875 -12.046875 L 7.21875 -4.078125 L 5.65625 -3.203125 L 3.78125 -6.515625 L 0.40625 -4.609375 L 2.28125 -1.296875 L 0.734375 -0.421875 Z M -3.765625 -8.390625 "/></g></g></g><g fill="#3f4166" fill-opacity="1"><g transform="translate(163.818028, 140.515689)"><g><path d="M -0.078125 -9.765625 L 1.4375 -10.34375 L 7.84375 -2.984375 L 6.140625 -2.34375 L 4.71875 -3.96875 L 1.71875 -2.828125 L 1.75 -0.671875 L 0.0625 -0.015625 Z M 3.828125 -5.1875 L 1.453125 -8.015625 L 1.4375 -8.015625 L 1.5625 -4.328125 Z M 3.828125 -5.1875 "/></g></g></g><g fill="#3f4166" fill-opacity="1"><g transform="translate(171.522956, 137.697031)"><g/></g></g><g fill="#3f4166" fill-opacity="1"><g transform="translate(174.858325, 136.799422)"><g/></g></g><g fill="#3f4166" fill-opacity="1"><g transform="translate(178.24257, 136.108587)"><g/></g></g><g fill="#3f4166" fill-opacity="1"><g transform="translate(181.495807, 135.48645)"><g><path d="M 0.671875 -1.515625 L 0.484375 -7.671875 L 1.9375 -9.21875 L 6.65625 -9.359375 L 8.203125 -7.90625 L 8.390625 -1.75 L 6.9375 -0.203125 L 2.21875 -0.0625 Z M 5.9375 -1.703125 L 6.59375 -2.390625 L 6.4375 -7.171875 L 5.75 -7.828125 L 2.9375 -7.734375 L 2.28125 -7.046875 L 2.4375 -2.265625 L 3.125 -1.609375 Z M 5.9375 -1.703125 "/></g></g></g><g fill="#3f4166" fill-opacity="1"><g transform="translate(190.278242, 135.247633)"><g><path d="M 3.765625 -7.28125 L 1.0625 -7.59375 L 1.234375 -9.078125 L 8.421875 -8.265625 L 8.25 -6.78125 L 5.53125 -7.078125 L 4.671875 0.53125 L 2.90625 0.328125 Z M 3.765625 -7.28125 "/></g></g></g><g fill="#3f4166" fill-opacity="1"><g transform="translate(197.517655, 135.983906)"><g><path d="M 1.078125 -1.265625 L 2.640625 -7.21875 L 4.453125 -8.296875 L 9.03125 -7.109375 L 10.09375 -5.28125 L 8.53125 0.671875 L 6.71875 1.75 L 2.140625 0.5625 Z M 6.171875 0.046875 L 6.984375 -0.421875 L 8.203125 -5.0625 L 7.734375 -5.875 L 5 -6.59375 L 4.1875 -6.125 L 2.96875 -1.484375 L 3.4375 -0.671875 Z M 6.171875 0.046875 "/></g></g></g><g fill="#3f4166" fill-opacity="1"><g transform="translate(205.980091, 138.099535)"><g><path d="M 4.515625 -8.015625 L 6.03125 -7.328125 L 6.09375 -0.828125 L 6.125 -0.8125 L 11.03125 -5.09375 L 12.53125 -4.421875 L 8.78125 3.9375 L 7.21875 3.234375 L 9.5 -1.859375 L 9.484375 -1.859375 L 5.8125 1.203125 L 4.8125 0.75 L 4.640625 -4.03125 L 4.625 -4.046875 L 2.34375 1.046875 L 0.765625 0.34375 Z M 4.515625 -8.015625 "/></g></g></g><g fill="#3f4166" fill-opacity="1"><g transform="translate(215.128717, 142.258932)"><g><path d="M 7.875 -5.765625 L 9.234375 -4.875 L 7 4.625 L 5.5 3.625 L 5.984375 1.5 L 3.296875 -0.265625 L 1.5625 1.03125 L 0.046875 0.03125 Z M 6.46875 0.09375 L 7.34375 -3.484375 L 7.34375 -3.5 L 4.4375 -1.25 Z M 6.46875 0.09375 "/></g></g></g><g fill="#3f4166" fill-opacity="1"><g transform="translate(221.890076, 146.688785)"><g><path d="M 1.421875 -0.609375 L 2.28125 -1.59375 L 3.59375 -0.4375 L 3.09375 0.125 L 3.125 0.75 L 5.15625 2.546875 L 5.796875 2.5 L 6.796875 1.359375 L 6.75 0.765625 L 4.15625 -1.53125 L 4.046875 -3.53125 L 5.65625 -5.34375 L 7.640625 -5.453125 L 10.734375 -2.71875 L 10.859375 -0.734375 L 9.984375 0.25 L 8.671875 -0.90625 L 9.1875 -1.484375 L 9.140625 -2.09375 L 7.203125 -3.828125 L 6.609375 -3.765625 L 5.71875 -2.765625 L 5.734375 -2.171875 L 8.328125 0.140625 L 8.46875 2.140625 L 6.75 4.0625 L 4.71875 4.171875 L 1.546875 1.375 Z M 1.421875 -0.609375 "/></g></g></g><g fill="#3f4166" fill-opacity="1"><g transform="translate(227.869914, 151.956912)"><g><path d="M 4.953125 0.0625 L 6.984375 -5.921875 L 8.25 -4.4375 L 6.796875 -0.359375 L 6.8125 -0.328125 L 11.09375 -1.09375 L 12.359375 0.40625 L 6.09375 1.40625 L 3.25 3.828125 L 2.109375 2.484375 Z M 4.953125 0.0625 "/></g></g></g><g fill="#3f4166" fill-opacity="1"><g transform="translate(233.037926, 157.947203)"><g><path d="M 1.65625 -0.1875 L 6.875 -3.421875 L 8.953125 -2.9375 L 11.4375 1.0625 L 10.953125 3.140625 L 5.734375 6.375 L 3.65625 5.890625 L 1.171875 1.890625 Z M 4.4375 4.28125 L 5.375 4.5 L 9.4375 1.984375 L 9.640625 1.046875 L 8.15625 -1.34375 L 7.234375 -1.546875 L 3.171875 0.96875 L 2.953125 1.890625 Z M 4.4375 4.28125 "/></g></g></g><g fill="#3f4166" fill-opacity="1"><g transform="translate(237.677753, 165.369837)"><g><path d="M 8.765625 -2.78125 L 9.390625 -1.296875 L 5.25 4.875 L 5.25 4.890625 L 10.984375 2.46875 L 11.65625 4.046875 L 3.21875 7.609375 L 2.59375 6.140625 L 6.734375 -0.03125 L 6.71875 -0.0625 L 1 2.359375 L 0.328125 0.78125 Z M 8.765625 -2.78125 "/></g></g></g><g fill="#3f4166" fill-opacity="1"><g transform="translate(241.003424, 173.572139)"><g/></g></g><g fill="#3f4166" fill-opacity="1"><g transform="translate(143.289238, 237.078755)"><g><path d="M 1.140625 -0.296875 L 9.78125 -2.40625 L 6.078125 -5.6875 L 6.65625 -6.328125 L 11.15625 -2.34375 L 10.5 -1.609375 L 1.859375 0.484375 L 1.84375 0.515625 L 5.640625 3.875 L 5.078125 4.5 L 0.484375 0.4375 Z M 1.140625 -0.296875 "/></g></g></g><g fill="#3f4166" fill-opacity="1"><g transform="translate(150.588196, 243.359126)"><g><path d="M 7.890625 -5.828125 L 8.796875 -5.25 L 6.609375 4.21875 L 5.734375 3.671875 L 6.359375 1.140625 L 3.125 -0.921875 L 1.09375 0.703125 L 0.21875 0.140625 Z M 6.578125 0.234375 L 7.734375 -4.5625 L 7.71875 -4.578125 L 3.859375 -1.5 Z M 6.578125 0.234375 "/></g></g></g><g fill="#3f4166" fill-opacity="1"><g transform="translate(159.377035, 248.725723)"><g><path d="M 4.625 -7.96875 L 9.921875 -5.65625 L 9.5625 -4.84375 L 5.1875 -6.75 L 3.859375 -3.71875 L 7.671875 -2.0625 L 7.328125 -1.25 L 3.515625 -2.90625 L 1.875 0.828125 L 0.953125 0.421875 Z M 4.625 -7.96875 "/></g></g></g><g fill="#3f4166" fill-opacity="1"><g transform="translate(168.042636, 252.355261)"><g><path d="M 3.375 -8.578125 L 9.078125 -7.046875 L 8.859375 -6.1875 L 4.125 -7.453125 L 3.28125 -4.34375 L 7.65625 -3.171875 L 7.4375 -2.3125 L 3.0625 -3.484375 L 2.21875 -0.328125 L 6.953125 0.9375 L 6.71875 1.796875 L 1.015625 0.265625 Z M 3.375 -8.578125 "/></g></g></g><g fill="#3f4166" fill-opacity="1"><g transform="translate(177.577507, 254.754428)"><g><path d="M 7.78125 -2.046875 L 7.5 0.734375 L 6.515625 0.640625 L 6.765625 -1.875 L 5.625 -3.3125 L 2.40625 -3.625 L 2.03125 0.203125 L 1.046875 0.109375 L 1.953125 -9 L 7.15625 -8.484375 L 8.234375 -7.1875 L 7.953125 -4.296875 L 6.78125 -3.34375 Z M 2.5 -4.484375 L 6.28125 -4.109375 L 7 -4.671875 L 7.21875 -6.984375 L 6.625 -7.671875 L 2.84375 -8.046875 Z M 2.5 -4.484375 "/></g></g></g><g fill="#3f4166" fill-opacity="1"><g transform="translate(188.274453, 255.596309)"><g><path d="M 0.46875 -9.203125 L 6.359375 -9.578125 L 6.40625 -8.6875 L 1.515625 -8.375 L 1.71875 -5.15625 L 6.234375 -5.453125 L 6.296875 -4.5625 L 1.78125 -4.265625 L 1.984375 -1.015625 L 6.875 -1.328125 L 6.9375 -0.4375 L 1.046875 -0.0625 Z M 0.46875 -9.203125 "/></g></g></g><g fill="#3f4166" fill-opacity="1"><g transform="translate(197.88519, 254.733423)"><g/></g></g><g fill="#3f4166" fill-opacity="1"><g transform="translate(203.058642, 253.809605)"><g><path d="M -1.734375 -9.046875 L -0.78125 -9.34375 L 0.453125 -5.390625 L 2.484375 -6.03125 L 3.515625 -10.6875 L 4.53125 -11 L 3.40625 -5.890625 L 7.453125 -2.328125 L 6.390625 -2 L 2.765625 -5.1875 L 0.71875 -4.546875 L 1.953125 -0.609375 L 1 -0.3125 Z M -1.734375 -9.046875 "/></g></g></g><g fill="#3f4166" fill-opacity="1"><g transform="translate(212.857598, 250.583898)"><g><path d="M 0.171875 -1.703125 L -2.671875 -7.296875 L -2.046875 -9.234375 L 1.625 -11.109375 L 3.5625 -10.46875 L 6.40625 -4.875 L 5.78125 -2.953125 L 2.109375 -1.078125 Z M 4.984375 -3.546875 L 5.390625 -4.734375 L 2.828125 -9.734375 L 1.640625 -10.109375 L -1.265625 -8.625 L -1.65625 -7.4375 L 0.90625 -2.4375 L 2.078125 -2.0625 Z M 4.984375 -3.546875 "/></g></g></g><g fill="#3f4166" fill-opacity="1"><g transform="translate(222.625965, 245.351289)"><g><path d="M 3.4375 -7.484375 L 5.0625 -5.3125 L 4.8125 -3.578125 L 3.578125 -2.671875 L 3.796875 -1.953125 L 4.4375 -2.4375 L 5.359375 -2.296875 L 5.953125 -1.515625 L 5.8125 -0.5625 L 4.28125 0.578125 L 3.890625 0.046875 L 5.125 -0.875 L 5.1875 -1.265625 L 4.921875 -1.625 L 4.546875 -1.65625 L 3.484375 -0.875 L 3.171875 -1.296875 L 2.921875 -2.171875 L 1.640625 -1.21875 L -0.046875 -1.46875 L -0.546875 -2.140625 L 0.25 -2.734375 L 0.546875 -2.328125 L 1.4375 -2.1875 L 3.953125 -4.0625 L 4.078125 -4.984375 L 2.859375 -6.625 L 1.953125 -6.75 L -0.859375 -4.640625 L -2.546875 -4.890625 L -4.046875 -6.890625 L -3.796875 -8.578125 L -0.71875 -10.875 L 0.96875 -10.625 L 1.484375 -9.9375 L 0.703125 -9.359375 L 0.390625 -9.78125 L -0.53125 -9.90625 L -2.921875 -8.125 L -3.0625 -7.21875 L -1.96875 -5.75 L -1.0625 -5.625 L 1.765625 -7.734375 Z M 3.4375 -7.484375 "/></g></g></g><g fill="#3f4166" fill-opacity="1"><g transform="translate(230.535465, 239.122665)"><g><path d="M -4.3125 -6.109375 L -5.515625 -7.375 L -4.796875 -8.0625 L -3.59375 -6.796875 L -0.09375 -2.828125 L -0.53125 -2.421875 Z M 0.46875 -0.9375 L 0.109375 -1.3125 L 0.125 -1.8125 L 0.5 -2.171875 L 0.984375 -2.15625 L 1.34375 -1.78125 L 1.34375 -1.28125 L 0.96875 -0.921875 Z M 0.46875 -0.9375 "/></g></g></g></svg>